<svg width="167" height="199" viewBox="0 0 167 199" fill="none" xmlns="http://www.w3.org/2000/svg">
<path fill-rule="evenodd" clip-rule="evenodd" d="M49.4531 41.168C9.62261 64.3083 -6.90712 97.3339 3.34076 125.903C12.7599 152.552 53.7468 166.43 166.465 122.709C147.466 126.537 87.1355 127.017 47.8019 116.967C8.46316 106.91 -12.5264 85.5291 49.4531 41.168Z" fill="#FF4D00"/>
<path d="M66.1438 167.07C98.5407 186.542 127.96 185.422 140.685 162.122C154.072 137.547 138.371 85.8491 30.1162 0C46.3167 17.8728 88.7872 82.021 107.796 127.016C124.983 167.87 123.989 195.318 66.1438 167.07Z" fill="url(#paint0_linear_1208_188)"/>
<path fill-rule="evenodd" clip-rule="evenodd" d="M127.131 91.1168C133.908 44.9957 115.898 21.8611 82.8355 32.871C51.1078 43.4076 16.5623 94.1454 10.1143 198.666C13.9198 183.982 38.0488 129.73 65.9802 88.2431C97.551 41.3276 130.439 15.3187 127.131 91.1168Z" fill="#FF4D00"/>
<defs>
<linearGradient id="paint0_linear_1208_188" x1="30.1159" y1="90.3582" x2="144.73" y2="90.3582" gradientUnits="userSpaceOnUse">
<stop offset="0.9999" stop-color="#FF4D00"/>
<stop offset="1" stop-color="#402F26"/>
</linearGradient>
</defs>
</svg>
