<svg width="58" height="56" viewBox="0 0 58 56" fill="none" xmlns="http://www.w3.org/2000/svg">
<path d="M36.2521 25.2481C35.9877 25.2481 35.71 25.1455 35.4985 24.953C35.0886 24.5553 35.0886 23.901 35.4985 23.5033L41.1967 17.9739L6.95462 7.99267L10.6829 20.0651C10.8548 20.6039 10.5375 21.1812 9.96898 21.348C9.4137 21.5148 8.81876 21.2069 8.64689 20.6552L4.37655 6.76105C4.27078 6.40183 4.36332 6.00412 4.64096 5.73471C4.9186 5.46529 5.31523 5.36266 5.69863 5.47812L43.5103 16.4985C43.8673 16.6011 44.145 16.8834 44.2375 17.2298C44.33 17.5762 44.2243 17.9482 43.9599 18.2048L37.0189 24.9402C36.7941 25.1455 36.5297 25.2481 36.2521 25.2481ZM40.1655 47.5711L47.7278 40.2328C48.1377 39.835 48.1377 39.1808 47.7278 38.783L34.4937 25.9281C34.0839 25.5304 33.4096 25.5304 32.9997 25.9281C32.5899 26.3258 32.5899 26.9801 32.9997 27.3778L45.4935 39.5015L39.4251 45.3901L26.9314 33.2664C26.5215 32.8687 25.8473 32.8687 25.4374 33.2664L17.2405 41.2206L11.886 23.9139C11.7141 23.375 11.1324 23.0671 10.5639 23.2211C10.0086 23.3879 9.69134 23.9523 9.84999 24.504L15.7068 43.4529C15.8126 43.7993 16.1035 44.0687 16.4604 44.1585C16.8174 44.2483 17.2008 44.1457 17.4652 43.8891L26.1778 35.4346L38.6715 47.5583C38.8698 47.7507 39.1342 47.8534 39.4251 47.8534C39.716 47.8534 39.9672 47.7636 40.1655 47.5711Z" fill="#FF4D00"/>
<path d="M14.7677 20.373C14.7677 20.9375 14.2918 21.3993 13.7101 21.3993H8.02507C7.44335 21.3993 6.9674 20.9375 6.9674 20.373C6.9674 19.8085 7.44335 19.3466 8.02507 19.3466H13.7101C14.2918 19.3466 14.7677 19.7956 14.7677 20.373ZM12.1632 23.1954H2.4062C1.82448 23.1954 1.34853 23.6573 1.34853 24.2218C1.34853 24.7863 1.82448 25.2481 2.4062 25.2481H12.1632C12.7449 25.2481 13.2209 24.7863 13.2209 24.2218C13.2209 23.6444 12.7449 23.1954 12.1632 23.1954ZM56.9423 26.2231H54.8534V24.1961C54.8534 23.6316 54.3775 23.1698 53.7958 23.1698C53.214 23.1698 52.7381 23.6316 52.7381 24.1961V26.2231H50.6492C50.0675 26.2231 49.5915 26.685 49.5915 27.2495C49.5915 27.814 50.0675 28.2758 50.6492 28.2758H52.7381V30.3029C52.7381 30.8674 53.214 31.3292 53.7958 31.3292C54.3775 31.3292 54.8534 30.8674 54.8534 30.3029V28.2758H56.9423C57.524 28.2758 58 27.814 58 27.2495C58 26.685 57.524 26.2231 56.9423 26.2231ZM4.86528 43.8378C4.28356 43.8378 3.80761 44.2997 3.80761 44.8641C3.80761 46.3267 2.57807 47.5326 1.05767 47.5326C0.475952 47.5326 0 47.9945 0 48.559C0 49.1235 0.475952 49.5853 1.05767 49.5853C3.74151 49.5853 5.92295 47.4685 5.92295 44.8641C5.92295 44.2997 5.447 43.8378 4.86528 43.8378ZM11.4757 47.5326C9.96854 47.5326 8.72578 46.3395 8.72578 44.8641C8.72578 44.2997 8.24983 43.8378 7.66811 43.8378C7.08639 43.8378 6.61044 44.2997 6.61044 44.8641C6.61044 47.4685 8.79188 49.5853 11.4757 49.5853C12.0574 49.5853 12.5334 49.1235 12.5334 48.559C12.5334 47.9945 12.0574 47.5326 11.4757 47.5326ZM11.4757 50.2525C8.79188 50.2525 6.61044 52.3693 6.61044 54.9737C6.61044 55.5381 7.08639 56 7.66811 56C8.24983 56 8.72578 55.5381 8.72578 54.9737C8.72578 53.5111 9.95532 52.3051 11.4757 52.3051C12.0574 52.3051 12.5334 51.8433 12.5334 51.2788C12.5334 50.7143 12.0574 50.2525 11.4757 50.2525ZM1.05767 50.2525C0.475952 50.2525 0 50.7143 0 51.2788C0 51.8433 0.475952 52.3051 1.05767 52.3051C2.56485 52.3051 3.80761 53.4983 3.80761 54.9737C3.80761 55.5381 4.28356 56 4.86528 56C5.447 56 5.92295 55.5381 5.92295 54.9737C5.92295 52.3693 3.74151 50.2525 1.05767 50.2525ZM51.1384 53.1134C50.3583 53.1134 49.7105 53.7292 49.7105 54.4861C49.7105 55.2431 50.3451 55.8717 51.1384 55.8717C51.9184 55.8717 52.5662 55.2559 52.5662 54.4861C52.553 53.7292 51.9184 53.1134 51.1384 53.1134Z" fill="#FF4D00"/>
<path d="M37.469 0V4.51592H34.6133V0H37.469ZM52.6862 0V9.91707H55.6609V0H52.6862ZM46.6972 0V9.91707H49.5529V0H46.6972Z" fill="#D500F9"/>
<path d="M43.563 0V4.51592H40.6016V0H43.563Z" fill="#FFEA00"/>
</svg>
