<svg width="58" height="56" viewBox="0 0 58 56" fill="none" xmlns="http://www.w3.org/2000/svg">
<path d="M18.7586 15.3344C18.7586 14.8531 19.1664 14.4594 19.6648 14.4594H35.9207C36.4191 14.4594 36.827 14.8531 36.827 15.3344C36.827 15.8156 36.4191 16.2094 35.9207 16.2094H19.6648C19.1664 16.2094 18.7586 15.8266 18.7586 15.3344ZM52.743 44.7344H5.1875V24.4672H49.8883C50.3867 24.4672 50.7945 24.0734 50.7945 23.5922V20.8359C50.7945 20.3547 50.3867 19.9609 49.8883 19.9609H5.1875V16.2094H15.6773C16.1758 16.2094 16.5836 15.8156 16.5836 15.3344V10.6422C16.5836 10.1609 16.1758 9.76718 15.6773 9.76718C15.1789 9.76718 14.7711 10.1609 14.7711 10.6422V14.4594H4.28125C3.78281 14.4594 3.375 14.8531 3.375 15.3344V20.8359C3.375 21.3172 3.78281 21.7109 4.28125 21.7109H48.982V22.7172H4.28125C3.78281 22.7172 3.375 23.1109 3.375 23.5922V45.6094C3.375 46.0906 3.78281 46.4844 4.28125 46.4844H52.7316C53.2301 46.4844 53.6379 46.0906 53.6379 45.6094C53.6379 45.1281 53.2414 44.7344 52.743 44.7344ZM52.743 14.4594H40.8145V10.6422C40.8145 10.1609 40.4066 9.76718 39.9082 9.76718C39.4098 9.76718 39.002 10.1609 39.002 10.6422V15.3344C39.002 15.8156 39.4098 16.2094 39.9082 16.2094H51.8254V41.7812C51.8254 42.2625 52.2332 42.6562 52.7316 42.6562C53.2301 42.6562 53.6379 42.2625 53.6379 41.7812V15.3344C53.6492 14.8531 53.2414 14.4594 52.743 14.4594ZM24.2414 36.4766C23.743 36.4766 23.3352 36.8703 23.3352 37.3516V40.1078C23.3352 40.5891 23.743 40.9828 24.2414 40.9828H32.7941C33.2926 40.9828 33.7004 40.5891 33.7004 40.1078V37.3516C33.7004 36.8703 33.2926 36.4766 32.7941 36.4766H29.9395C29.441 36.4766 29.0332 36.8703 29.0332 37.3516C29.0332 37.8328 29.441 38.2266 29.9395 38.2266H31.8879V39.2328H25.1477V38.2266H27.0961C27.5945 38.2266 28.0023 37.8328 28.0023 37.3516V29.0937C28.0023 28.7109 27.7418 28.3719 27.368 28.2625C26.9941 28.1422 26.5863 28.2844 26.3484 28.5906L23.4937 32.4734C23.1992 32.8672 23.3012 33.4141 23.709 33.6984C24.1168 33.9828 24.6832 33.8844 24.9777 33.4906L26.1785 31.85V36.4766H24.2414Z" fill="#FF4D00"/>
<path d="M56.2098 41.7812C56.2098 42.2625 55.802 42.6562 55.3035 42.6562H48.8012C48.3027 42.6562 47.8949 42.2625 47.8949 41.7812C47.8949 41.3 48.3027 40.9062 48.8012 40.9062H55.3035C55.8133 40.9062 56.2098 41.289 56.2098 41.7812ZM17.1277 50.3015H5.42578C4.92734 50.3015 4.51953 50.6953 4.51953 51.1765C4.51953 51.6578 4.92734 52.0515 5.42578 52.0515H17.1277C17.6262 52.0515 18.034 51.6578 18.034 51.1765C18.034 50.6953 17.6262 50.3015 17.1277 50.3015ZM22.1574 51.1765C22.1574 51.7234 21.693 52.1609 21.1379 52.1609C20.5828 52.1609 20.1184 51.7125 20.1184 51.1765C20.1184 50.6406 20.5828 50.1922 21.1379 50.1922C21.693 50.1922 22.1574 50.6297 22.1574 51.1765ZM25.5559 51.1765C25.5559 51.7234 25.0914 52.1609 24.5363 52.1609C23.9813 52.1609 23.5168 51.7125 23.5168 51.1765C23.5168 50.6406 23.9813 50.1922 24.5363 50.1922C25.0914 50.1922 25.5559 50.6297 25.5559 51.1765ZM28.9543 51.1765C28.9543 51.7234 28.4898 52.1609 27.9348 52.1609C27.3797 52.1609 26.9152 51.7125 26.9152 51.1765C26.9152 50.6406 27.3797 50.1922 27.9348 50.1922C28.4898 50.1922 28.9543 50.6297 28.9543 51.1765ZM45.8219 6.66093C48.1215 6.66093 49.9906 4.85624 49.9906 2.63593C49.9906 2.15468 49.5828 1.76093 49.0844 1.76093C48.5859 1.76093 48.1781 2.15468 48.1781 2.63593C48.1781 3.8828 47.1246 4.91093 45.8219 4.91093C45.3234 4.91093 44.9156 5.30468 44.9156 5.78593C44.9156 6.26718 45.3234 6.66093 45.8219 6.66093ZM54.7484 6.66093C55.2469 6.66093 55.6547 6.26718 55.6547 5.78593C55.6547 5.30468 55.2469 4.91093 54.7484 4.91093C53.457 4.91093 52.3922 3.89374 52.3922 2.63593C52.3922 2.15468 51.9844 1.76093 51.4859 1.76093C50.9875 1.76093 50.5797 2.15468 50.5797 2.63593C50.5797 4.86718 52.4488 6.66093 54.7484 6.66093ZM51.4859 12.1297C51.9844 12.1297 52.3922 11.7359 52.3922 11.2547C52.3922 10.0078 53.4457 8.97968 54.7484 8.97968C55.2469 8.97968 55.6547 8.58593 55.6547 8.10468C55.6547 7.62343 55.2469 7.22968 54.7484 7.22968C52.4488 7.22968 50.5797 9.03436 50.5797 11.2547C50.5797 11.7469 50.9875 12.1297 51.4859 12.1297ZM49.0844 12.1297C49.5828 12.1297 49.9906 11.7359 49.9906 11.2547C49.9906 9.03436 48.1215 7.22968 45.8219 7.22968C45.3234 7.22968 44.9156 7.62343 44.9156 8.10468C44.9156 8.58593 45.3234 8.97968 45.8219 8.97968C47.1133 8.97968 48.1781 9.99686 48.1781 11.2547C48.1781 11.7469 48.5859 12.1297 49.0844 12.1297ZM6.81914 6.99999V8.72811C6.81914 9.20936 7.22695 9.60311 7.72539 9.60311C8.22383 9.60311 8.63164 9.20936 8.63164 8.72811V6.99999H10.4215C10.9199 6.99999 11.3277 6.60624 11.3277 6.12499C11.3277 5.64374 10.9199 5.24999 10.4215 5.24999H8.63164V3.52186C8.63164 3.04061 8.22383 2.64686 7.72539 2.64686C7.22695 2.64686 6.81914 3.04061 6.81914 3.52186V5.24999H5.0293C4.53086 5.24999 4.12305 5.64374 4.12305 6.12499C4.12305 6.60624 4.53086 6.99999 5.0293 6.99999H6.81914ZM55.734 51.2859C55.734 52.8828 54.3973 54.1734 52.7434 54.1734C51.0895 54.1734 49.7527 52.8828 49.7527 51.2859C49.7527 49.689 51.0895 48.3984 52.7434 48.3984C54.3973 48.3984 55.734 49.7 55.734 51.2859ZM53.9215 51.2859C53.9215 50.6625 53.3891 50.1484 52.7434 50.1484C52.0977 50.1484 51.5652 50.6625 51.5652 51.2859C51.5652 51.9094 52.0977 52.4234 52.7434 52.4234C53.3891 52.4234 53.9215 51.9094 53.9215 51.2859Z" fill="#FF4D00"/>
<path d="M24.5938 4.71406V2.32968H31.1867V4.71406H24.5938ZM40.7703 4.71406V2.32968H34.1773V4.71406H40.7703Z" fill="#D500F9"/>
<path d="M15.0215 4.71406V2.32968H21.6145V4.71406H15.0215Z" fill="#FFEA00"/>
</svg>
