<svg width="58" height="56" viewBox="0 0 58 56" fill="none" xmlns="http://www.w3.org/2000/svg">
<path d="M21.3535 36.6734C21.3535 37.1547 20.9457 37.5484 20.4473 37.5484H15.5762C15.0777 37.5484 14.6699 37.1547 14.6699 36.6734C14.6699 36.1922 15.0777 35.7984 15.5762 35.7984H20.4473C20.9457 35.7984 21.3535 36.1922 21.3535 36.6734ZM34.0977 50.4437H25.7375C25.2391 50.4437 24.8313 50.8375 24.8313 51.3187C24.8313 51.8 25.2391 52.1937 25.7375 52.1937H34.0977C34.5961 52.1937 35.0039 51.8 35.0039 51.3187C35.0039 50.8375 34.5961 50.4437 34.0977 50.4437ZM54.0012 42.1312H52.2227V40.4031C52.2227 39.9219 51.8148 39.5281 51.3164 39.5281C50.818 39.5281 50.4102 39.9219 50.4102 40.4031V42.1312H48.6203C48.1219 42.1312 47.7141 42.525 47.7141 43.0062C47.7141 43.4875 48.1219 43.8812 48.6203 43.8812H50.4102V45.6094C50.4102 46.0906 50.818 46.4844 51.3164 46.4844C51.8148 46.4844 52.2227 46.0906 52.2227 45.6094V43.8812H54.0125C54.5109 43.8812 54.9188 43.4875 54.9188 43.0062C54.9188 42.525 54.5109 42.1312 54.0012 42.1312ZM7.39727 11.5281H9.18711C9.68555 11.5281 10.0934 11.1344 10.0934 10.6531C10.0934 10.1719 9.68555 9.77812 9.18711 9.77812H7.39727V8.05C7.39727 7.56875 6.98945 7.175 6.49102 7.175C5.99258 7.175 5.58477 7.56875 5.58477 8.05V9.77812H3.79492C3.29648 9.77812 2.88867 10.1719 2.88867 10.6531C2.88867 11.1344 3.29648 11.5281 3.79492 11.5281H5.58477V13.2562C5.58477 13.7375 5.99258 14.1312 6.49102 14.1312C6.98945 14.1312 7.39727 13.7375 7.39727 13.2562V11.5281ZM43.8059 7.25156C46.1055 7.25156 47.9746 5.44687 47.9746 3.22656C47.9746 2.74531 47.5668 2.35156 47.0684 2.35156C46.5699 2.35156 46.1621 2.74531 46.1621 3.22656C46.1621 4.47344 45.1086 5.50156 43.8059 5.50156C43.3074 5.50156 42.8996 5.89531 42.8996 6.37656C42.8996 6.85781 43.3074 7.25156 43.8059 7.25156ZM52.7324 7.25156C53.2309 7.25156 53.6387 6.85781 53.6387 6.37656C53.6387 5.89531 53.2309 5.50156 52.7324 5.50156C51.441 5.50156 50.3762 4.48437 50.3762 3.22656C50.3762 2.74531 49.9684 2.35156 49.4699 2.35156C48.9715 2.35156 48.5637 2.74531 48.5637 3.22656C48.5637 5.44687 50.4328 7.25156 52.7324 7.25156ZM49.4699 12.7203C49.9684 12.7203 50.3762 12.3266 50.3762 11.8453C50.3762 10.5984 51.4297 9.57031 52.7324 9.57031C53.2309 9.57031 53.6387 9.17656 53.6387 8.69531C53.6387 8.21406 53.2309 7.82031 52.7324 7.82031C50.4328 7.82031 48.5637 9.625 48.5637 11.8453C48.5637 12.3266 48.9715 12.7203 49.4699 12.7203ZM43.8059 7.83125C43.3074 7.83125 42.8996 8.225 42.8996 8.70625C42.8996 9.1875 43.3074 9.58125 43.8059 9.58125C45.0973 9.58125 46.1621 10.5984 46.1621 11.8562C46.1621 12.3375 46.5699 12.7312 47.0684 12.7312C47.5668 12.7312 47.9746 12.3375 47.9746 11.8562C47.9746 9.63594 46.1055 7.83125 43.8059 7.83125ZM16.7883 25.0031C17.4566 25.0031 18.0117 24.4781 18.0117 23.8219C18.0117 23.1656 17.468 22.6406 16.7883 22.6406C16.1199 22.6406 15.5648 23.1656 15.5648 23.8219C15.5648 24.4781 16.1199 25.0031 16.7883 25.0031ZM20.2094 33.4687C20.2094 32.9875 19.8016 32.5937 19.3031 32.5937H8.19024C7.6918 32.5937 7.28399 32.9875 7.28399 33.4687C7.28399 33.95 7.6918 34.3437 8.19024 34.3437H19.3031C19.8016 34.3437 20.2094 33.95 20.2094 33.4687Z" fill="#FF4D00"/>
<path d="M6.49023 40.4031L13.0379 46.725L6.49023 53.0469V40.4031Z" fill="#FFEA00"/>
<path d="M20.718 8.79377H16.7871V5.0094H20.718V8.79377V8.79377Z" fill="#FFEA00"/>
<path d="M26.9719 8.79377H23.041V5.0094H26.9719V8.79377V8.79377Z" fill="#FFEA00"/>
<path d="M33.2355 8.79377H29.3047V5.0094H33.2355V8.79377Z" fill="#D500F9"/>
<path d="M47.3402 51.9531L32.8969 41.8141L18.4422 51.9531V15.6297H21.6027C22.1012 15.6297 22.509 16.0234 22.509 16.5047C22.509 16.9859 22.1012 17.3797 21.6027 17.3797H20.2547V48.5188L32.8855 39.6594L45.5164 48.5188V17.5875C45.5164 13.0703 40.9738 13.0156 40.7812 13.0156H13.4805V14.3172C13.4805 14.7984 13.0727 15.1922 12.5742 15.1922C12.0758 15.1922 11.668 14.7984 11.668 14.3172V11.2656H40.7812C41.3137 11.2656 43.1941 11.3531 44.8707 12.5453C45.9922 13.3328 47.3289 14.8531 47.3289 17.5984V51.9531H47.3402Z" fill="#FF4D00"/>
</svg>
