<svg width="58" height="56" viewBox="0 0 58 56" fill="none" xmlns="http://www.w3.org/2000/svg">
<path d="M51.5535 42.5797V45.6313C51.5535 46.1125 51.1457 46.5063 50.6473 46.5063H36.068C35.5355 48.2235 33.9156 51.3844 29.1691 51.3844C24.4113 51.3844 22.7914 48.2235 22.2703 46.5063H7.67969C7.18125 46.5063 6.77344 46.1125 6.77344 45.6313V43.1922C6.77344 42.711 7.18125 42.3172 7.67969 42.3172C8.17813 42.3172 8.58594 42.711 8.58594 43.1922V44.7563H22.9727C23.4031 44.7563 23.777 45.0516 23.8676 45.4672C24.1168 46.725 25.1363 49.6344 29.1691 49.6344C33.202 49.6344 34.2215 46.7141 34.4707 45.4672C34.55 45.0516 34.9238 44.7563 35.3656 44.7563H49.7523V43.1703L45.5836 41.5625C45.3004 41.4532 45.0965 41.2125 45.0285 40.9172C44.8473 40.0313 44.632 38.9266 44.2129 36.1703V36.1485C43.6465 32.4078 42.9555 27.7485 41.3469 23.7781C39.5231 19.2719 36.9063 16.5266 33.3492 15.3781C33.0547 15.2797 32.8281 15.05 32.7488 14.7547C32.6809 14.4594 32.7602 14.1532 32.9867 13.9344C34.0063 12.9391 34.5727 11.6266 34.5727 10.2266C34.5727 7.35002 32.1484 4.99846 29.1578 4.99846C26.1672 4.99846 23.743 7.33909 23.743 10.2266C23.743 11.6156 24.3094 12.9391 25.3289 13.9344C25.5441 14.1532 25.6348 14.4594 25.5668 14.7547C25.4988 15.05 25.2723 15.2906 24.9664 15.3781C21.4094 16.5156 18.7926 19.261 16.9688 23.7781C15.3602 27.7485 14.6691 32.4078 14.1027 36.1485L14.0687 36.3453C13.8988 37.4828 13.7063 38.7297 13.491 39.8672H42.7402C43.2387 39.8672 43.6465 40.261 43.6465 40.7422C43.6465 41.2235 43.2387 41.6172 42.7402 41.6172H12.4148C12.143 41.6172 11.8824 41.4969 11.7125 41.2891C11.5426 41.0813 11.4746 40.8188 11.5313 40.5563C11.8258 39.2219 12.075 37.5594 12.3016 36.0938L12.3355 35.8969C12.9133 32.0688 13.627 27.3 15.3035 23.1438C17.1273 18.6266 19.7215 15.6844 23.2105 14.175C22.3949 13.0156 21.9531 11.6594 21.9531 10.2375C21.9531 6.38752 25.193 3.2594 29.1805 3.2594C33.168 3.2594 36.4078 6.38752 36.4078 10.2375C36.4078 11.6594 35.966 13.0266 35.1504 14.175C38.6395 15.6844 41.2336 18.6266 43.0574 23.1438C44.734 27.3 45.4477 32.0688 46.0254 35.8969V35.9188C46.3652 38.1719 46.5691 39.2985 46.7277 40.1078L50.9984 41.7594C51.327 41.9016 51.5535 42.2188 51.5535 42.5797ZM29.1691 48.9453C32.2391 48.9453 33.2813 47.0203 33.6324 45.8719C33.7684 45.4125 33.4965 44.9203 33.0207 44.7891C32.5449 44.6578 32.0352 44.9203 31.8992 45.3797C31.5254 46.5938 30.6418 47.1953 29.1805 47.1953C27.7191 47.1953 26.8355 46.6047 26.4617 45.3797C26.3258 44.9203 25.816 44.6469 25.3402 44.7891C24.8645 44.9203 24.5813 45.4125 24.7285 45.8719C25.057 47.0203 26.0992 48.9453 29.1691 48.9453Z" fill="#FF4D00"/>
<path d="M6.43477 49.5797C6.78594 49.9188 6.78594 50.4766 6.43477 50.8156L4.29375 52.8828C4.1125 53.0578 3.88594 53.1344 3.64805 53.1344C3.41016 53.1344 3.18359 53.0469 3.00234 52.8828C2.65117 52.5438 2.65117 51.9859 3.00234 51.6469L5.14336 49.5797C5.50586 49.2406 6.08359 49.2406 6.43477 49.5797ZM56.0406 28.9297H48.3602C47.8617 28.9297 47.4539 29.3234 47.4539 29.8047C47.4539 30.2859 47.8617 30.6797 48.3602 30.6797H56.0406C56.5391 30.6797 56.9469 30.2859 56.9469 29.8047C56.9469 29.3234 56.5391 28.9297 56.0406 28.9297ZM51.6113 9.05625C51.2602 8.71719 50.6824 8.71719 50.3313 9.05625L44.9051 14.2953C44.5539 14.6344 44.5539 15.1922 44.9051 15.5313C45.0863 15.7063 45.3129 15.7828 45.5508 15.7828C45.7773 15.7828 46.0152 15.6953 46.1965 15.5313L51.6227 10.2922C51.9738 9.95313 51.9738 9.39531 51.6113 9.05625ZM47.4199 21.4594C47.2953 20.9234 47.6465 20.3984 48.2016 20.2891C48.4734 20.2344 48.7453 20.2781 48.9719 20.4203C49.1984 20.5625 49.357 20.7813 49.4137 21.0438C49.4703 21.3063 49.425 21.5688 49.2777 21.7875C49.1305 22.0063 48.9039 22.1594 48.632 22.2141C48.5641 22.225 48.4848 22.2359 48.4168 22.2359C48.2242 22.2359 48.0316 22.1813 47.8617 22.0828C47.6352 21.9406 47.4766 21.7219 47.4199 21.4594ZM9.95781 19.8297C9.60664 19.4906 9.02891 19.4906 8.67773 19.8297L8.36055 20.1359L8.04336 19.8297C7.69219 19.4906 7.11445 19.4906 6.76328 19.8297C6.41211 20.1688 6.41211 20.7266 6.76328 21.0656L7.08047 21.3719L6.76328 21.6781C6.41211 22.0172 6.41211 22.575 6.76328 22.9141C6.94453 23.0891 7.17109 23.1656 7.40899 23.1656C7.64688 23.1656 7.87344 23.0781 8.05469 22.9141L8.37188 22.6078L8.68906 22.9141C8.87031 23.0891 9.09688 23.1656 9.33477 23.1656C9.57266 23.1656 9.79922 23.0781 9.98047 22.9141C10.3316 22.575 10.3316 22.0172 9.98047 21.6781L9.66328 21.3719L9.98047 21.0656C10.309 20.7266 10.309 20.1688 9.95781 19.8297ZM49.6176 49C49.2664 48.6609 48.6887 48.6609 48.3375 49C47.9863 49.3391 47.9863 49.8969 48.3375 50.2359L51.6793 53.4625C51.8606 53.6375 52.0871 53.7141 52.325 53.7141C52.5516 53.7141 52.7895 53.6266 52.9707 53.4625C53.3219 53.1234 53.3219 52.5656 52.9707 52.2266L49.6176 49ZM53.8543 37.7234C54.0016 37.9422 54.0469 38.2047 53.9902 38.4672C53.8883 38.9266 53.4578 39.2438 52.9934 39.2438C52.9254 39.2438 52.8461 39.2328 52.7781 39.2219C52.223 39.1016 51.8719 38.5766 51.9965 38.0516C52.0531 37.7891 52.2117 37.5703 52.4383 37.4281C52.6648 37.2859 52.9367 37.2422 53.2086 37.2969C53.4805 37.3406 53.707 37.4938 53.8543 37.7234ZM15.9957 11.4188H15.5539V10.9922C15.5539 10.5109 15.1461 10.1172 14.6477 10.1172C14.1492 10.1172 13.7414 10.5109 13.7414 10.9922V11.4188H13.2996C12.8012 11.4188 12.3934 11.8125 12.3934 12.2938C12.3934 12.775 12.8012 13.1688 13.2996 13.1688H13.7414V13.5953C13.7414 14.0766 14.1492 14.4703 14.6477 14.4703C15.1461 14.4703 15.5539 14.0766 15.5539 13.5953V13.1688H15.9957C16.4941 13.1688 16.902 12.775 16.902 12.2938C16.902 11.8125 16.4941 11.4188 15.9957 11.4188ZM44.9844 5.32656C44.9844 6.93438 43.625 8.24688 41.9598 8.24688C40.2945 8.24688 38.9352 6.93438 38.9352 5.32656C38.9352 3.71875 40.2945 2.40625 41.9598 2.40625C43.625 2.40625 44.9844 3.71875 44.9844 5.32656ZM43.1719 5.32656C43.1719 4.68125 42.6281 4.15625 41.9598 4.15625C41.2914 4.15625 40.7477 4.68125 40.7477 5.32656C40.7477 5.97188 41.2914 6.49688 41.9598 6.49688C42.6281 6.49688 43.1719 5.96094 43.1719 5.32656ZM7.53359 29.8047C7.53359 31.4125 6.17422 32.725 4.50898 32.725C2.84375 32.725 1.48438 31.4125 1.48438 29.8047C1.48438 28.1969 2.84375 26.8844 4.50898 26.8844C6.17422 26.8844 7.53359 28.1969 7.53359 29.8047ZM5.72109 29.8047C5.72109 29.1594 5.17734 28.6344 4.50898 28.6344C3.84063 28.6344 3.29688 29.1594 3.29688 29.8047C3.29688 30.45 3.84063 30.975 4.50898 30.975C5.17734 30.975 5.72109 30.45 5.72109 29.8047Z" fill="#FF4D00"/>
<path d="M3.00195 2.7453L9.54961 9.06718L3.00195 15.389V2.7453Z" fill="#D500F9"/>
<path d="M18.3852 51.0781V53.4625H11.9395V51.0781H18.3852Z" fill="#FFEA00"/>
</svg>
