<svg width="58" height="56" viewBox="0 0 58 56" fill="none" xmlns="http://www.w3.org/2000/svg">
<path d="M47.4531 3.1828H50.557V6.17968H47.4531V3.1828ZM52.1203 3.1828V6.17968H55.2242V3.1828H52.1203ZM52.1203 10.7953H55.2242V7.79843H52.1203V10.7953Z" fill="#D500F9"/>
<path d="M41.9813 27.7156C41.4828 27.7156 41.075 27.3219 41.075 26.8406C41.075 26.3594 41.4828 25.9656 41.9813 25.9656H48.4043C48.9027 25.9656 49.3105 26.3594 49.3105 26.8406C49.3105 27.3219 48.9027 27.7156 48.4043 27.7156H41.9813ZM50.9645 20.4969H51.4062V20.9234C51.4062 21.4047 51.8141 21.7984 52.3125 21.7984C52.8109 21.7984 53.2188 21.4047 53.2188 20.9234V20.4969H53.6605C54.159 20.4969 54.5668 20.1031 54.5668 19.6219C54.5668 19.1406 54.159 18.7469 53.6605 18.7469H53.2188V18.3203C53.2188 17.8391 52.8109 17.4453 52.3125 17.4453C51.8141 17.4453 51.4062 17.8391 51.4062 18.3203V18.7469H50.9645C50.466 18.7469 50.0582 19.1406 50.0582 19.6219C50.0582 20.1031 50.466 20.4969 50.9645 20.4969ZM8.86914 49.3063H7.0793V47.5781C7.0793 47.0969 6.67148 46.7031 6.17305 46.7031C5.67461 46.7031 5.2668 47.0969 5.2668 47.5781V49.3063H3.47695C2.97852 49.3063 2.5707 49.7 2.5707 50.1813C2.5707 50.6625 2.97852 51.0563 3.47695 51.0563H5.2668V52.7844C5.2668 53.2656 5.67461 53.6594 6.17305 53.6594C6.67148 53.6594 7.0793 53.2656 7.0793 52.7844V51.0563H8.86914C9.36758 51.0563 9.77539 50.6625 9.77539 50.1813C9.77539 49.7 9.36758 49.3063 8.86914 49.3063ZM54.3629 29.8484C54.3629 29.3672 53.9551 28.9734 53.4566 28.9734H42.4004C41.902 28.9734 41.4941 29.3672 41.4941 29.8484C41.4941 30.3297 41.902 30.7234 42.4004 30.7234H53.4566C53.9664 30.7234 54.3629 30.3297 54.3629 29.8484ZM53.9664 49.9516H44.043C43.5445 49.9516 43.1367 50.3453 43.1367 50.8266C43.1367 51.3078 43.5445 51.7016 44.043 51.7016H53.9664C54.4648 51.7016 54.8727 51.3078 54.8727 50.8266C54.8727 50.3453 54.4648 49.9516 53.9664 49.9516ZM2.92188 7.03281C5.22148 7.03281 7.09062 5.22813 7.09062 3.00781C7.09062 2.52656 6.68281 2.13281 6.18437 2.13281C5.68594 2.13281 5.27812 2.52656 5.27812 3.00781C5.27812 4.25469 4.22461 5.28281 2.92188 5.28281C2.42344 5.28281 2.01562 5.67656 2.01562 6.15781C2.01562 6.63906 2.42344 7.03281 2.92188 7.03281ZM11.8371 5.28281C10.5457 5.28281 9.48086 4.26563 9.48086 3.00781C9.48086 2.52656 9.07305 2.13281 8.57461 2.13281C8.07617 2.13281 7.66836 2.52656 7.66836 3.00781C7.66836 5.22813 9.5375 7.03281 11.8371 7.03281C12.3355 7.03281 12.7434 6.63906 12.7434 6.15781C12.7434 5.67656 12.3355 5.28281 11.8371 5.28281ZM11.8371 7.60156C9.5375 7.60156 7.66836 9.40625 7.66836 11.6266C7.66836 12.1078 8.07617 12.5016 8.57461 12.5016C9.07305 12.5016 9.48086 12.1078 9.48086 11.6266C9.48086 10.3797 10.5344 9.35156 11.8371 9.35156C12.3355 9.35156 12.7434 8.95781 12.7434 8.47656C12.7434 7.99531 12.3355 7.60156 11.8371 7.60156ZM5.2668 11.6266C5.2668 12.1078 5.67461 12.5016 6.17305 12.5016C6.67148 12.5016 7.0793 12.1078 7.0793 11.6266C7.0793 9.40625 5.21016 7.60156 2.92188 7.60156C2.42344 7.60156 2.01562 7.99531 2.01562 8.47656C2.01562 8.95781 2.42344 9.35156 2.92188 9.35156C4.21328 9.35156 5.2668 10.3688 5.2668 11.6266Z" fill="#FF4D00"/>
<path d="M43.4208 30.9422C42.979 32.1453 42.3673 33.239 41.631 34.1687C39.8751 36.3781 37.4962 37.4937 34.5395 37.4937C33.2028 37.4937 32.0247 37.2094 31.0278 36.6406C30.4048 36.2906 29.8724 35.8312 29.4419 35.2953C28.0259 36.7172 26.27 37.439 24.197 37.439C21.886 37.439 20.0735 36.4875 18.8048 34.6062C17.604 32.8234 17.1395 30.4609 17.4341 27.6062C17.6946 25.3203 18.295 23.264 19.2466 21.4812C20.2095 19.6656 21.4442 18.2328 22.9395 17.2484C24.4575 16.2422 26.1227 15.7281 27.8899 15.7281C29.6005 15.7281 31.1411 16.0453 32.4665 16.6687C32.9196 16.8765 33.1009 17.4016 32.8856 17.8391C32.6704 18.2766 32.1267 18.4516 31.6735 18.2437C30.5974 17.7406 29.3286 17.4781 27.8899 17.4781C26.4739 17.4781 25.1938 17.8719 23.9704 18.6922C22.7356 19.5125 21.6935 20.7266 20.8665 22.2797C20.0282 23.8765 19.4845 25.725 19.2466 27.7922C18.9974 30.2312 19.3599 32.2109 20.3341 33.6547C21.263 35.0219 22.5204 35.689 24.2083 35.689C26.1114 35.689 27.6294 34.9015 28.8302 33.2828C29.0227 33.0312 29.3286 32.889 29.6571 32.9219C29.9743 32.9547 30.2575 33.1406 30.3934 33.425C30.7559 34.1797 31.277 34.7375 31.9681 35.1422C32.6817 35.5469 33.5427 35.7547 34.5509 35.7547C36.9411 35.7547 38.7876 34.8906 40.2036 33.1187C40.8267 32.3312 41.3364 31.4015 41.7216 30.3734C41.8915 29.914 42.4126 29.6844 42.877 29.8484C43.3528 29.9906 43.5907 30.4937 43.4208 30.9422ZM34.0411 30.275L35.0833 18.8234C35.1286 18.3422 34.7548 17.9156 34.2563 17.8719C33.7579 17.8281 33.3161 18.189 33.2708 18.6703L32.2286 30.1C32.07 31.3578 32.2286 32.3312 32.727 33.064C33.1122 33.6219 33.8599 34.289 35.2759 34.289C36.8731 34.289 38.1985 33.425 39.2181 31.7187C40.1356 30.1875 40.6454 28.175 40.736 25.7469C40.9739 20.9344 39.9317 17.1609 37.6434 14.525C35.3212 11.8562 31.8661 10.5 27.3802 10.5C24.5708 10.5 22.0333 11.2 19.8356 12.5781C17.638 13.9562 15.8935 15.925 14.636 18.4515C13.4013 20.9344 12.6876 23.8 12.5403 26.9828C12.3138 31.8609 13.356 35.7 15.6556 38.4234C17.9892 41.1797 21.4895 42.5797 26.0548 42.5797C27.2442 42.5797 28.5017 42.4484 29.8044 42.1969C31.1185 41.9344 32.2626 41.5844 33.2255 41.1469C33.6786 40.939 33.8712 40.425 33.656 39.9875C33.4407 39.55 32.9083 39.364 32.4552 39.5719C31.6169 39.9547 30.6087 40.2609 29.4419 40.4906C28.2638 40.7203 27.1196 40.8406 26.0548 40.8406C21.9993 40.8406 19.054 39.6922 17.0489 37.3297C15.0438 34.9562 14.1376 31.5109 14.3415 27.0812C14.4888 24.139 15.1345 21.4922 16.2673 19.2281C17.3774 17.0078 18.9067 15.2687 20.8212 14.0656C22.7243 12.8734 24.9333 12.2609 27.3802 12.2609C31.3563 12.2609 34.2677 13.3765 36.2501 15.6625C38.2438 17.9484 39.1388 21.3281 38.9235 25.6812V25.6922C38.8442 27.8359 38.4138 29.575 37.6548 30.8656C36.9751 32.0031 36.1934 32.5609 35.2759 32.5609C34.6188 32.5609 34.381 32.3312 34.2337 32.1234C33.9845 31.7515 33.9052 31.1281 34.0184 30.3187C34.0298 30.2969 34.0298 30.2859 34.0411 30.275ZM42.7185 16.0234C41.4157 13.2234 39.422 11.0469 36.7938 9.53749C34.1884 8.03905 31.0505 7.28436 27.4708 7.28436C23.9364 7.28436 20.7192 8.12655 17.8985 9.77811C15.0778 11.4297 12.8235 13.8031 11.1923 16.8219C9.58369 19.8187 8.67743 23.2312 8.50751 26.9937C8.33759 30.9094 8.91533 34.3437 10.2181 37.1984C11.5435 40.0969 13.5825 42.3281 16.2899 43.8265C18.9634 45.3031 22.2145 46.0469 25.9755 46.0469C27.4708 46.0469 28.9888 45.8719 30.4614 45.5328C31.9681 45.1828 33.2028 44.7125 34.1204 44.1328C34.5395 43.8703 34.6528 43.3234 34.381 42.9187C34.1091 42.514 33.5427 42.4047 33.1235 42.6672C32.3872 43.1375 31.345 43.5312 30.0423 43.8265C28.7056 44.1328 27.3349 44.2859 25.9755 44.2859C22.5431 44.2859 19.5864 43.6187 17.1962 42.2953C14.8399 40.9937 13.0501 39.0359 11.8833 36.4875C10.6938 33.8844 10.1727 30.7125 10.3313 27.0703C10.4899 23.5703 11.3282 20.3984 12.8122 17.6312C14.2849 14.8969 16.3126 12.7531 18.8501 11.2656C21.3763 9.77811 24.2876 9.02343 27.4708 9.02343C30.722 9.02343 33.5427 9.70155 35.8649 11.025C38.1645 12.3484 39.9091 14.2625 41.0645 16.7234C42.2313 19.2281 42.7524 22.1922 42.6052 25.539C42.5938 25.889 42.5599 26.239 42.5372 26.5781C42.4919 27.0594 42.8544 27.4859 43.3528 27.5297C43.8513 27.5734 44.2931 27.2234 44.3384 26.7422C44.3724 26.3812 44.395 25.9984 44.4177 25.6156C44.5763 22.0062 43.9985 18.7687 42.7185 16.0234ZM25.3524 22.4984C26.0548 21.4484 26.9837 20.9562 28.2524 20.9562C28.7169 20.9562 29.17 21.0328 29.6118 21.164C30.0876 21.3172 30.5974 21.0656 30.756 20.6062C30.9145 20.1469 30.654 19.6547 30.1782 19.5015C29.5552 19.3047 28.9095 19.1953 28.2524 19.1953C26.3606 19.1953 24.8767 19.9828 23.8345 21.5359C22.8829 22.9578 22.2825 24.9375 21.9993 27.5844V27.5953C21.8294 29.5203 22.022 30.964 22.5657 32.025C23.1888 33.2281 24.2423 33.8625 25.6356 33.8625C26.5419 33.8625 27.4028 33.4906 28.1731 32.7578C28.8755 32.1015 29.4532 31.1609 29.895 29.9687C29.9177 29.9031 29.9403 29.8265 29.9403 29.75L30.5294 23.3078C30.5747 22.8265 30.2009 22.4 29.7024 22.3562C29.204 22.3125 28.7622 22.6734 28.7169 23.1547L28.1392 29.4875C27.7993 30.3734 27.3802 31.0515 26.9044 31.5109C26.4739 31.9156 26.0548 32.1125 25.6356 32.1125C24.9333 32.1125 24.5028 31.85 24.1856 31.2375C23.8005 30.4828 23.6645 29.3015 23.8005 27.7375C24.0497 25.4406 24.5708 23.6687 25.3524 22.4984Z" fill="#FF4D00"/>
</svg>
